<svg id="visual" viewBox="0 0 900 600" width="900" height="600" xmlns="http://www.w3.org/2000/svg" xmlns:xlink="http://www.w3.org/1999/xlink" version="1.1"><rect x="0" y="0" width="900" height="600" fill="#001829"></rect><g fill="#297EA6"><path d="M0 -35.9L8.1 -11.1L34.1 -11.1L13 4.2L21.1 29L0 13.7L-21.1 29L-13 4.2L-34.1 -11.1L-8.1 -11.1Z" transform="translate(406 121)"></path><path d="M0 -22.7L5.1 -7L21.5 -7L8.2 2.7L13.3 18.3L0 8.7L-13.3 18.3L-8.2 2.7L-21.5 -7L-5.1 -7Z" transform="translate(477 516)"></path><path d="M0 -25.5L5.7 -7.9L24.2 -7.9L9.3 3L15 20.6L0 9.7L-15 20.6L-9.3 3L-24.2 -7.9L-5.7 -7.9Z" transform="translate(741 492)"></path><path d="M0 -30.2L6.8 -9.3L28.7 -9.3L11 3.6L17.8 24.4L0 11.5L-17.8 24.4L-11 3.6L-28.7 -9.3L-6.8 -9.3Z" transform="translate(593 349)"></path><path d="M0 -22.7L5.1 -7L21.5 -7L8.2 2.7L13.3 18.3L0 8.7L-13.3 18.3L-8.2 2.7L-21.5 -7L-5.1 -7Z" transform="translate(83 166)"></path><path d="M0 -26.4L5.9 -8.2L25.1 -8.2L9.6 3.1L15.5 21.4L0 10.1L-15.5 21.4L-9.6 3.1L-25.1 -8.2L-5.9 -8.2Z" transform="translate(204 231)"></path><path d="M0 -22.7L5.1 -7L21.5 -7L8.2 2.7L13.3 18.3L0 8.7L-13.3 18.3L-8.2 2.7L-21.5 -7L-5.1 -7Z" transform="translate(888 310)"></path></g></svg>