<svg id="visual" viewBox="0 0 900 600" width="900" height="600" xmlns="http://www.w3.org/2000/svg" xmlns:xlink="http://www.w3.org/1999/xlink" version="1.1"><rect x="0" y="0" width="900" height="600" fill="#002233"></rect><path d="M0 424L21.5 416.3C43 408.7 86 393.3 128.8 398.7C171.7 404 214.3 430 257.2 449.5C300 469 343 482 385.8 483C428.7 484 471.3 473 514.2 456.2C557 439.3 600 416.7 642.8 406.7C685.7 396.7 728.3 399.3 771.2 399.5C814 399.7 857 397.3 878.5 396.2L900 395L900 601L878.5 601C857 601 814 601 771.2 601C728.3 601 685.7 601 642.8 601C600 601 557 601 514.2 601C471.3 601 428.7 601 385.8 601C343 601 300 601 257.2 601C214.3 601 171.7 601 128.8 601C86 601 43 601 21.5 601L0 601Z" fill="#0066FF" stroke-linecap="round" stroke-linejoin="miter"></path></svg>